<?xml version="1.0" encoding="UTF-8" standalone="no"?>
<svg xmlns:dc="http://purl.org/dc/elements/1.1/"
    xmlns:cc="http://creativecommons.org/ns#"
    xmlns:rdf="http://www.w3.org/1999/02/22-rdf-syntax-ns#"
    xmlns:svg="http://www.w3.org/2000/svg"
    xmlns="http://www.w3.org/2000/svg"
    xmlns:sodipodi="http://sodipodi.sourceforge.net/DTD/sodipodi-0.dtd"
    xmlns:inkscape="http://www.inkscape.org/namespaces/inkscape" width="435.526mm" height="212.598mm" viewBox="500 550 4000 1500" version="1.1" id="svg3" sodipodi:docname="N.svg" inkscape:version="1.0.1 (3bc2e813f5, 2020-09-07)">
    <metadata id="metadata9">
        <rdf:RDF>
            <cc:Work rdf:about="">
                <dc:format>image/svg+xml</dc:format>
                <dc:type rdf:resource="http://purl.org/dc/dcmitype/StillImage" />
                <dc:title></dc:title>
            </cc:Work>
        </rdf:RDF>
    </metadata>
    <defs id="defs7" />
    <sodipodi:namedview pagecolor="#ffffff" bordercolor="#666666" borderopacity="1" objecttolerance="10" gridtolerance="10" guidetolerance="10" inkscape:pageopacity="0" inkscape:pageshadow="2" inkscape:window-width="1920" inkscape:window-height="1017" id="namedview5" showgrid="false" inkscape:zoom="0.6154005" inkscape:cx="787.5479" inkscape:cy="401.76001" inkscape:window-x="1912" inkscape:window-y="-8" inkscape:window-maximized="1" inkscape:current-layer="svg3" inkscape:pagecheckerboard="true" />
    <path id="P" fill="none" stroke="black" stroke-width="1" d="M 3421.00,1882.00            C 3421.00,1882.00 3421.00,1844.00 3421.00,1844.00              3421.00,1844.00 3420.00,1829.00 3420.00,1829.00              3420.00,1829.00 3420.00,1606.00 3420.00,1606.00              3420.00,1606.00 3980.00,1606.00 3980.00,1606.00              3980.00,1606.00 4072.00,1606.00 4072.00,1606.00              4072.00,1606.00 4087.00,1605.00 4087.00,1605.00              4169.46,1604.04 4252.66,1576.67 4313.00,1518.96              4375.57,1459.12 4407.41,1373.21 4419.13,1289.00              4419.13,1289.00 4423.09,1251.00 4423.09,1251.00              4423.09,1251.00 4424.00,1239.00 4424.00,1239.00              4424.00,1239.00 4425.00,1220.00 4425.00,1220.00              4425.00,1220.00 4425.00,1119.00 4425.00,1119.00              4425.00,1119.00 4425.00,1036.00 4425.00,1036.00              4425.00,1036.00 4424.04,1024.00 4424.04,1024.00              4424.04,1024.00 4424.04,1012.00 4424.04,1012.00              4424.04,1012.00 4423.09,1001.00 4423.09,1001.00              4421.28,974.47 4418.83,948.16 4413.60,922.00              4400.74,857.63 4378.55,798.45 4333.83,749.00              4269.32,677.67 4174.15,645.98 4081.00,634.85              4081.00,634.85 4040.00,630.91 4040.00,630.91              4040.00,630.91 4030.00,630.00 4030.00,630.00              4030.00,630.00 4011.00,629.00 4011.00,629.00              4011.00,629.00 3996.00,629.00 3996.00,629.00              3996.00,629.00 3981.00,628.00 3981.00,628.00              3981.00,628.00 3427.00,628.00 3427.00,628.00              3425.19,628.00 3421.93,627.86 3420.33,628.57              3417.31,629.91 3410.87,641.63 3408.81,645.00              3408.81,645.00 3376.32,698.00 3376.32,698.00              3376.32,698.00 3331.58,771.00 3331.58,771.00              3331.58,771.00 3238.19,923.00 3238.19,923.00              3238.19,923.00 3090.19,1164.00 3090.19,1164.00              3090.19,1164.00 3050.20,1229.00 3050.20,1229.00              3050.20,1229.00 3039.80,1246.00 3039.80,1246.00              3038.34,1248.41 3035.59,1252.21 3035.50,1255.00              3035.39,1258.24 3039.46,1264.12 3041.20,1267.00              3041.20,1267.00 3057.80,1294.00 3057.80,1294.00              3057.80,1294.00 3122.81,1400.00 3122.81,1400.00              3122.81,1400.00 3337.19,1749.00 3337.19,1749.00              3337.19,1749.00 3396.05,1845.00 3396.05,1845.00              3396.05,1845.00 3410.80,1869.00 3410.80,1869.00              3413.67,1873.74 3416.04,1879.23 3421.00,1882.00 Z            M 3421.00,1294.00            C 3421.00,1294.00 3421.00,940.00 3421.00,940.00              3421.00,940.00 3914.00,940.00 3914.00,940.00              3914.00,940.00 3927.00,940.96 3927.00,940.96              3972.26,942.93 4020.35,954.19 4046.31,995.00              4056.83,1011.55 4061.98,1032.63 4063.96,1052.00              4063.96,1052.00 4063.96,1061.00 4063.96,1061.00              4063.96,1061.00 4065.00,1071.00 4065.00,1071.00              4065.00,1071.00 4065.00,1136.00 4065.00,1136.00              4065.00,1136.00 4064.09,1146.00 4064.09,1146.00              4064.09,1146.00 4062.72,1165.00 4062.72,1165.00              4057.55,1205.41 4041.22,1247.02 4008.00,1272.35              3999.32,1278.96 3988.41,1284.67 3978.00,1287.97              3966.14,1291.73 3951.43,1293.98 3939.00,1294.00              3939.00,1294.00 3421.00,1294.00 3421.00,1294.00 Z" style="fill:#69ca00;stroke:#69ca00;stroke-opacity:1;fill-opacity:1" />
    <path id="X" fill="none" stroke="#000000" stroke-width="1" d="m 1871.9995,627.99998 c 0,0 11.58,20 11.58,20 0,0 19,31 19,31 0,0 59.61,97 59.61,97 0,0 139.39,227.00002 139.39,227.00002 0,0 51.47,84 51.47,84 0,0 76.15,124 76.15,124 0,0 19.61,32 19.61,32 0,0 6.71,12.58 6.71,12.58 0,0 -7.94,14.42 -7.94,14.42 0,0 -20.38,33 -20.38,33 0,0 -76.78,125 -76.78,125 0,0 -182.84,298.0001 -182.84,298.0001 0,0 -59,96 -59,96 0,0 -19,31 -19,31 0,0 -17.58,29 -17.58,29 0,0 450,0 450,0 0,0 7.48,-0.99 7.48,-0.99 0,0 5.33,-7.01 5.33,-7.01 0,0 9.38,-15 9.38,-15 0,0 46.13,-74 46.13,-74 0,0 132.1,-212 132.1,-212 0,0 46.78,-75 46.78,-75 0,0 18.8,-31.0001 18.8,-31.0001 0,0 23.42,37.0001 23.42,37.0001 0,0 43,69 43,69 0,0 130.39,209 130.39,209 0,0 47.38,76 47.38,76 0,0 9.39,15 9.39,15 0,0 5.94,8.01 5.94,8.01 0,0 7.48,0.99 7.48,0.99 0,0 450,0 450,0 0,0 -14.58,-24 -14.58,-24 0,0 -19,-31 -19,-31 0,0 -54,-88 -54,-88 0,0 -101.84,-166 -101.84,-166 0,0 -92.78,-151.0001 -92.78,-151.0001 0,0 -74.22,-121 -74.22,-121 0,0 -19.77,-32 -19.77,-32 0,0 -7.47,-13.58 -7.47,-13.58 0,0 7.34,-13.42 7.34,-13.42 0,0 19.12,-31 19.12,-31 0,0 73.6,-120 73.6,-120 0,0 84.18,-137.00003 84.18,-137.00003 0,0 104.84,-170.99999 104.84,-170.99999 0,0 62,-101 62,-101 0,0 32.58,-54 32.58,-54 0,0 -449,0 -449,0 0,0 -7.79,1.02 -7.79,1.02 0,0 -5.53,6.98 -5.53,6.98 0,0 -10,16 -10,16 0,0 -47.48,76 -47.48,76 0,0 -114.78,184 -114.78,184 0,0 -53,84.99999 -53,84.99999 0,0 -29.42,47.00003 -29.42,47.00003 0,0 -18.58,-31 -18.58,-31 0,0 -40.61,-65.00003 -40.61,-65.00003 0,0 -138.39,-221.99999 -138.39,-221.99999 0,0 -46.74,-75 -46.74,-75 0,0 -14.89,-21.98 -14.89,-21.98 0,0 -7.79,-1.02 -7.79,-1.02 0,0 -449,0 -449,0 z" style="fill:#0eafe0;fill-opacity:1;stroke:#0eafe0;stroke-opacity:1" />
    <path id="N" fill="none" stroke="#000000" stroke-width="1" d="m 718.99923,628.00111 c 0,0 0,1253.99999 0,1253.99999 0,0 386.99997,0 386.99997,0 0,0 0,-755 0,-755 0,0 56.72,66 56.72,66 0,0 99,115 99,115 0,0 162.56,189 162.56,189 0,0 140.45,163 140.45,163 0,0 135.14,157 135.14,157 0,0 37.86,44 37.86,44 5.14,6.01 13.52,17.78 20.27,21 0,0 27.81,-45 27.81,-45 0,0 54.61,-89 54.61,-89 0,0 194,-316 194,-316 0,0 77.98,-127 77.98,-127 0,0 20.28,-33 20.28,-33 2.01,-3.19 8.41,-12.78 8.69,-16 0.33,-3.69 -4.07,-9.85 -6.05,-13 0,0 -16.64,-27 -16.64,-27 0,0 -64.48,-105 -64.48,-105 0,0 -213,-346.99999 -213,-346.99999 0,0 -60.15,-97.99999 -60.15,-97.99999 0,0 -15.86,-26.00001 -15.86,-26.00001 -2.53,-4.12999 -5,-9.49 -9.19,-12 0,0 0,754.99999 0,754.99999 0,0 -25.27,-29 -25.27,-29 0,0 -31,-36 -31,-36 0,0 -111.01,-129 -111.01,-129 0,0 -167,-193.99996 -167,-193.99996 0,0 -154.14,-179.00003 -154.14,-179.00003 0,0 -122.31,-141.99999 -122.31,-141.99999 0,0 -29.22,-34.00001 -29.22,-34.00001 -6.99,-7.87 -7.28,-11.98 -18.05,-12 0,0 -378.99997,0 -378.99997,0 z" style="fill:#f9b500;fill-opacity:1;stroke:#f9b500;stroke-opacity:1" />
</svg>
